<svg xmlns="http://www.w3.org/2000/svg" viewBox="0 0 300 400" width="300" height="400">
  <defs>
    <linearGradient id="bg" x1="0%" y1="0%" x2="100%" y2="100%">
      <stop offset="0%" style="stop-color:#141414"/>
      <stop offset="100%" style="stop-color:#0d0d0d"/>
    </linearGradient>
  </defs>
  <rect width="300" height="400" fill="url(#bg)"/>
  <!-- Helmet shape -->
  <ellipse cx="150" cy="130" rx="62" ry="70" fill="#1c1c1c" stroke="#2e2e2e" stroke-width="1"/>
  <ellipse cx="150" cy="140" rx="50" ry="55" fill="#242424"/>
  <!-- Visor -->
  <path d="M112 120 Q150 108 188 120 L185 152 Q150 165 115 152 Z" fill="#e8001c" opacity="0.9"/>
  <!-- Body / suit -->
  <path d="M60 400 L60 290 Q80 250 150 245 Q220 250 240 290 L240 400 Z" fill="#1a1a1a"/>
  <path d="M80 400 L80 300 Q95 270 150 265 Q205 270 220 300 L220 400 Z" fill="#141414"/>
  <!-- Racing stripe -->
  <rect x="140" y="265" width="20" height="135" fill="#e8001c" opacity="0.5"/>
  <!-- Shoulder patches -->
  <rect x="72" y="280" width="40" height="20" rx="2" fill="#e8001c" opacity="0.6"/>
  <rect x="188" y="280" width="40" height="20" rx="2" fill="#e8001c" opacity="0.6"/>
  <!-- Placeholder text -->
  <text x="150" y="230" text-anchor="middle" fill="#444" font-family="monospace" font-size="10" letter-spacing="2">DRIVER</text>
</svg>
