<svg xmlns="http://www.w3.org/2000/svg" viewBox="0 0 300 400" width="300" height="400">
  <defs>
    <linearGradient id="bg" x1="0%" y1="0%" x2="100%" y2="100%">
      <stop offset="0%" style="stop-color:#141414"/>
      <stop offset="100%" style="stop-color:#0d0d0d"/>
    </linearGradient>
  </defs>
  <rect width="300" height="400" fill="url(#bg)"/>
  <!-- Head -->
  <ellipse cx="150" cy="120" rx="45" ry="52" fill="#1c1c1c" stroke="#2e2e2e" stroke-width="1"/>
  <!-- Safety glasses -->
  <path d="M110 110 Q150 102 190 110 L188 122 Q150 130 112 122 Z" fill="#c9a84c" opacity="0.5"/>
  <!-- Body / overalls -->
  <path d="M55 400 L55 280 Q80 245 150 240 Q220 245 245 280 L245 400 Z" fill="#1a1a1a"/>
  <path d="M75 400 L75 290 Q95 265 150 260 Q205 265 225 290 L225 400 Z" fill="#141414"/>
  <!-- Tool belt -->
  <rect x="75" y="295" width="150" height="12" rx="2" fill="#c9a84c" opacity="0.35"/>
  <!-- Wrench silhouette -->
  <path d="M140 310 L160 310 L165 360 L135 360 Z" fill="#1c1c1c"/>
  <!-- Gold shoulder patches -->
  <rect x="68" y="268" width="38" height="18" rx="2" fill="#c9a84c" opacity="0.5"/>
  <rect x="194" y="268" width="38" height="18" rx="2" fill="#c9a84c" opacity="0.5"/>
  <text x="150" y="228" text-anchor="middle" fill="#444" font-family="monospace" font-size="10" letter-spacing="2">ENGINEER</text>
</svg>
